<svg viewBox="0 0 12 12" fill="none" xmlns="http://www.w3.org/2000/svg">
  <path d="M6.60963 0L7.20856 5.18919L9.00535 3.48649C10.631 5.02703 10.631 7.62162 9.00535 9.16216C8.23529 9.97297 7.12299 10.3784 6.0107 10.3784C4.8984 10.3784 3.7861 9.97297 3.01604 9.16216C1.39037 7.62162 1.39037 5.02703 3.01604 3.48649C3.52941 3 4.2139 2.59459 4.98396 2.43243L4.47059 0.891892C3.44385 1.13514 2.50267 1.62162 1.73262 2.35135C-0.57754 4.54054 -0.57754 8.10811 1.73262 10.3784C2.84492 11.4324 4.38503 12 5.92513 12C7.5508 12 9.00535 11.4324 10.1176 10.3784C12.4278 8.18919 12.4278 4.62162 10.1176 2.35135L12 0.567568L6.60963 0Z" fill="#FB5F3F" />
</svg>  