<svg width="27" height="28" viewBox="0 0 27 28" fill="none" xmlns="http://www.w3.org/2000/svg">
<path d="M13.5 0.719971C6.16663 0.719971 0.166626 6.70664 0.166626 14.08C0.166626 20.7466 5.04663 26.28 11.42 27.28V17.9466H8.03329V14.08H11.42V11.1333C11.42 7.78664 13.4066 5.94664 16.46 5.94664C17.9133 5.94664 19.4333 6.19997 19.4333 6.19997V9.4933H17.7533C16.1 9.4933 15.58 10.52 15.58 11.5733V14.08H19.2866L18.6866 17.9466H15.58V27.28C18.7219 26.7838 21.5829 25.1807 23.6465 22.7601C25.7102 20.3394 26.8404 17.2608 26.8333 14.08C26.8333 6.70664 20.8333 0.719971 13.5 0.719971Z" fill="black"/>
</svg>