<svg width="27" height="28" viewBox="0 0 27 28" fill="none" xmlns="http://www.w3.org/2000/svg">
<path d="M7.89996 0.666626H19.1C23.3666 0.666626 26.8333 4.13329 26.8333 8.39996V19.6C26.8333 21.651 26.0185 23.618 24.5683 25.0683C23.118 26.5185 21.151 27.3333 19.1 27.3333H7.89996C3.63329 27.3333 0.166626 23.8666 0.166626 19.6V8.39996C0.166626 6.34895 0.981386 4.38195 2.43167 2.93167C3.88195 1.48139 5.84895 0.666626 7.89996 0.666626ZM7.63329 3.33329C6.36025 3.33329 5.13936 3.83901 4.23918 4.73918C3.33901 5.63936 2.83329 6.86025 2.83329 8.13329V19.8666C2.83329 22.52 4.97996 24.6666 7.63329 24.6666H19.3666C20.6397 24.6666 21.8606 24.1609 22.7607 23.2607C23.6609 22.3606 24.1666 21.1397 24.1666 19.8666V8.13329C24.1666 5.47996 22.02 3.33329 19.3666 3.33329H7.63329ZM20.5 5.33329C20.942 5.33329 21.3659 5.50889 21.6785 5.82145C21.991 6.13401 22.1666 6.55793 22.1666 6.99996C22.1666 7.44199 21.991 7.86591 21.6785 8.17847C21.3659 8.49103 20.942 8.66663 20.5 8.66663C20.0579 8.66663 19.634 8.49103 19.3214 8.17847C19.0089 7.86591 18.8333 7.44199 18.8333 6.99996C18.8333 6.55793 19.0089 6.13401 19.3214 5.82145C19.634 5.50889 20.0579 5.33329 20.5 5.33329ZM13.5 7.33329C15.2681 7.33329 16.9638 8.03567 18.214 9.28591C19.4642 10.5362 20.1666 12.2318 20.1666 14C20.1666 15.7681 19.4642 17.4638 18.214 18.714C16.9638 19.9642 15.2681 20.6666 13.5 20.6666C11.7318 20.6666 10.0362 19.9642 8.78591 18.714C7.53567 17.4638 6.83329 15.7681 6.83329 14C6.83329 12.2318 7.53567 10.5362 8.78591 9.28591C10.0362 8.03567 11.7318 7.33329 13.5 7.33329ZM13.5 9.99996C12.4391 9.99996 11.4217 10.4214 10.6715 11.1715C9.92139 11.9217 9.49996 12.9391 9.49996 14C9.49996 15.0608 9.92139 16.0782 10.6715 16.8284C11.4217 17.5785 12.4391 18 13.5 18C14.5608 18 15.5782 17.5785 16.3284 16.8284C17.0785 16.0782 17.5 15.0608 17.5 14C17.5 12.9391 17.0785 11.9217 16.3284 11.1715C15.5782 10.4214 14.5608 9.99996 13.5 9.99996Z" fill="black"/>
</svg>
