<svg width="216" height="50" viewBox="0 0 216 50" fill="none" xmlns="http://www.w3.org/2000/svg">
<path d="M76.3836 35.0456L83.6279 45.2976H80.4929L74.5196 36.8249L71.5118 39.7056V45.2976H68.9276V28.0132H71.5542V36.6554L80.3659 28.0132H83.6702L76.3836 35.0456Z" fill="white"/>
<path d="M95.9135 32.8003V45.2976H93.5835V43.4336C92.7362 44.7893 91.2535 45.5942 89.6436 45.5942C86.9747 45.5942 85.2802 44.0267 85.2802 41.1883V32.8003H87.6949V40.8494C87.6949 42.6287 88.6269 43.476 90.3214 43.476C91.8042 43.476 93.4564 42.3745 93.4564 39.8751V32.8427H95.9135V32.8003Z" fill="white"/>
<path d="M98.625 28.0554H101.039V45.2975H98.625V28.0554Z" fill="white"/>
<path d="M107.182 34.749V42.2474C107.182 42.9676 107.564 43.3065 108.623 43.3065H109.724V45.2552C109.173 45.2976 108.665 45.34 108.241 45.34C105.996 45.34 104.768 44.5774 104.768 42.4592V34.7066H102.734V32.7155H104.768V29.1993H107.182V32.8003H109.724V34.7914L107.182 34.749Z" fill="white"/>
<path d="M122.264 32.8003V45.2976H119.934V43.4336C119.086 44.7893 117.604 45.5942 115.994 45.5942C113.283 45.5942 111.588 44.0267 111.588 41.1883V32.8003H114.003V40.8494C114.003 42.6287 114.935 43.476 116.629 43.476C118.112 43.476 119.764 42.3745 119.764 39.8751V32.8427H122.264V32.8003Z" fill="white"/>
<path d="M131.923 32.6308V34.9184H131.33C128.915 34.9184 127.432 36.1046 127.432 38.5193V45.2976H125.017V32.8002H127.347V35.0455C128.025 33.5204 129.593 32.5884 131.245 32.6308C131.457 32.5884 131.711 32.5884 131.923 32.6308Z" fill="white"/>
<path d="M146.072 39.0278C146.072 43.01 143.827 45.5518 140.353 45.5518C138.743 45.5942 137.218 44.8316 136.286 43.5184V50H133.871V32.7579H136.201V34.6219C137.091 33.2239 138.701 32.3767 140.353 32.4614C143.827 32.5037 146.072 35.0456 146.072 39.0278ZM143.573 38.9431C143.573 36.0623 142.132 34.5796 139.929 34.5796C137.727 34.5796 136.286 36.1894 136.286 39.0278C136.286 41.8662 137.727 43.476 139.929 43.476C142.132 43.476 143.573 41.7814 143.573 38.9431Z" fill="white"/>
<path d="M155.138 32.6308V34.9184H154.545C152.13 34.9184 150.648 36.1046 150.648 38.5193V45.2976H148.233V32.8002H150.563V35.0455C151.241 33.5204 152.808 32.5884 154.46 32.6308C154.672 32.5884 154.926 32.5884 155.138 32.6308Z" fill="white"/>
<path d="M156.494 39.0277C156.494 35.0455 159.036 32.5037 162.679 32.5037C166.322 32.5037 168.864 35.0455 168.864 39.0277C168.864 43.0099 166.322 45.5517 162.679 45.5517C159.036 45.5517 156.494 43.0099 156.494 39.0277ZM166.365 39.0277C166.365 36.147 164.924 34.5795 162.721 34.5795C160.518 34.5795 159.036 36.1893 159.036 39.0277C159.036 41.9084 160.476 43.4759 162.721 43.4759C164.967 43.4759 166.365 41.9084 166.365 39.0277Z" fill="white"/>
<path d="M180.768 43.3064V45.2975H170.432V43.603L175.812 36.74C176.32 36.0622 176.871 35.3844 177.422 34.7489C176.532 34.7489 175.685 34.7489 174.795 34.7489H170.643V32.7578H180.472V34.4524L175.092 41.3153C174.583 41.9508 174.032 42.6286 173.482 43.3064C174.371 43.2641 175.219 43.2641 176.108 43.2641L180.768 43.3064Z" fill="white"/>
<path d="M194.198 39.8327H184.793C185.005 42.3746 186.36 43.5607 188.394 43.5607C190.004 43.5607 191.063 42.7558 191.486 41.4849H193.944C193.308 43.8997 191.359 45.5942 188.351 45.5942C184.793 45.5942 182.378 43.0947 182.378 39.0702C182.378 35.1303 184.751 32.5461 188.309 32.5461C192.079 32.5461 194.24 35.4269 194.24 39.1973L194.198 39.8327ZM184.793 37.9264H191.698C191.486 35.9776 190.3 34.5372 188.267 34.5372C186.445 34.5372 185.132 35.6387 184.793 37.9264Z" fill="white"/>
<path d="M206.992 36.9095V45.2975H204.577V37.2484C204.577 35.4691 203.645 34.6219 201.95 34.6219C200.468 34.6219 198.815 35.7233 198.815 38.2228V45.2975H196.401V32.8002H198.731V34.6642C199.578 33.3086 201.061 32.5037 202.67 32.5037C205.339 32.5037 206.992 34.0288 206.992 36.9095Z" fill="white"/>
<path d="M213.134 34.749V42.2474C213.134 42.9676 213.473 43.3065 214.575 43.3065H215.676V45.2552C215.168 45.2976 214.617 45.34 214.193 45.34C211.948 45.34 210.72 44.5774 210.72 42.4592V34.7066H208.686V32.7155H210.72V29.1993H213.134V32.8003H215.634V34.7914L213.134 34.749Z" fill="white"/>
<path d="M84.1786 20.7688V10.8557L79.9422 20.7688H77.5275L73.3335 10.8557V20.7688H68.9276V3.56909H74.8586L78.8831 13.2704L83.1619 3.56909H88.5845V20.7688H84.1786Z" fill="#FF6600"/>
<path d="M91.9736 3.56909H95.744C96.1253 3.61146 96.3795 3.908 96.4218 4.24691V20.8112H91.9736V3.56909Z" fill="#FF6600"/>
<path d="M108.665 10.8557H114.257C114.638 10.8557 114.977 11.1946 114.935 11.5759V20.5147C112.986 20.896 111.037 21.0654 109.046 21.0654C102.607 21.0654 99.218 18.0152 99.218 12.0843C99.218 6.7888 102.607 3.14551 108.241 3.14551C110.741 3.14551 112.901 3.82333 114.299 4.75533L112.563 7.72081C111.292 7.17008 109.936 6.83116 108.538 6.7888C105.276 6.7888 103.793 8.94936 103.793 12.0843C103.793 15.431 105.53 17.4645 108.792 17.4645C109.428 17.4645 110.063 17.4221 110.699 17.3374V14.3719H108.58L108.665 10.8557Z" fill="#FF6600"/>
<path d="M124.806 6.87347H122.645V11.1946H124.806C126.119 11.1946 127.136 10.5168 127.136 8.86458C127.136 7.21238 126.077 6.87347 124.806 6.87347ZM128.068 20.7688L126.034 16.0241C125.611 15.0497 125.314 14.5837 124.424 14.5837H122.645V20.7688H118.324V4.24691C118.366 3.908 118.621 3.61146 119.002 3.56909H125.102C128.407 3.56909 131.287 4.24691 131.287 8.56803C131.287 10.4744 130.228 12.4655 128.237 12.8468C129.211 13.1857 130.228 14.4566 130.779 15.8546L132.728 20.8112H128.068V20.7688Z" fill="#FF6600"/>
<path d="M142.26 6.87352C139.93 6.87352 138.277 8.52571 138.277 12.1266C138.277 15.7276 139.93 17.4645 142.26 17.4645C144.251 17.4645 145.903 15.8123 145.903 12.1266C145.903 8.44099 144.251 6.87352 142.26 6.87352ZM142.26 21.1078C136.625 21.1078 133.617 17.1256 133.617 12.1266C133.617 7.12771 136.583 3.18787 142.26 3.18787C147.555 3.18787 150.52 7.17007 150.52 12.1266C150.52 17.0832 147.555 21.1078 142.26 21.1078Z" fill="#FF6600"/>
<path d="M159.036 21.1078C156.112 21.1078 153.401 20.0487 152.215 19.2438L154.164 15.7699C155.265 16.4478 157.383 17.4645 159.374 17.4645C160.476 17.4645 161.916 17.2527 161.916 16.0241C161.916 14.8803 160.349 14.499 158.273 13.9059C155.774 13.1857 152.893 12.2114 152.893 8.86462C152.893 5.2637 156.112 3.23022 160.264 3.23022C163.018 3.23022 165.136 4.20459 166.237 5.26369L163.865 7.97498C162.679 7.25479 161.493 6.70406 160.095 6.70406C158.442 6.70406 157.553 7.33953 157.553 8.22917C157.553 9.1188 158.739 9.5848 160.222 10.0084C162.848 10.8134 166.449 11.6606 166.449 15.0921C166.449 18.6507 163.611 21.1078 159.036 21.1078Z" fill="#FF6600"/>
<path d="M56.5367 3.779C51.4981 -1.25967 43.3261 -1.25967 38.2874 3.779L32.2325 9.83388L41.336 18.9797C44.9351 22.4517 46.7134 27.4057 46.2053 32.3597L56.5367 22.0283C61.5754 16.9896 61.5754 8.81768 56.5367 3.779Z" fill="#F39955"/>
<path d="M38.7533 21.6478L22.0283 4.88044C16.9896 -0.158226 8.81767 -0.158226 3.779 4.88044C-1.25967 9.91911 -1.25967 18.0911 3.779 23.1297L29.6498 49.0006L38.7533 39.8548C43.792 34.8161 43.792 26.6441 38.7533 21.6478Z" fill="#FF6600"/>
</svg>
