<svg width="294" height="48" viewBox="0 0 294 48" fill="none" xmlns="http://www.w3.org/2000/svg">
<path d="M247.575 0.0226223H239.414V47.9887H247.575V0.0226223Z" fill="white"/>
<path d="M44.4588 47.9999H36.1966V11.2638C36.1895 10.8441 36.0982 10.4301 35.9282 10.0463C35.7582 9.66254 35.5129 9.31675 35.2068 9.02952C34.9007 8.74229 34.5401 8.51943 34.1462 8.37415C33.7524 8.22886 33.3334 8.16414 32.9141 8.18375H26.1694V47.9999H18.0084V8.18375H8.1611V47.9999H0V0.0226561H33.9371C35.3248 0.0151903 36.7002 0.283173 37.9836 0.81113C39.267 1.33909 40.4329 2.11653 41.4136 3.09833C42.3944 4.08014 43.1705 5.24677 43.6971 6.53072C44.2237 7.81467 44.4902 9.19035 44.4813 10.5781L44.4588 47.9999Z" fill="white"/>
<path d="M129.318 8.18375H122.574V47.9999H114.39V8.18375H104.543V47.9999H96.4043V0.0226561H130.341C131.729 0.0151903 133.104 0.283173 134.388 0.81113C135.671 1.33909 136.837 2.11653 137.818 3.09833C138.799 4.08014 139.575 5.24677 140.101 6.53072C140.628 7.81467 140.895 9.19035 140.886 10.5781V47.9999H132.635V11.2638C132.626 10.8416 132.533 10.4254 132.36 10.04C132.188 9.65462 131.939 9.30785 131.63 9.02046C131.32 8.73307 130.956 8.51091 130.559 8.36715C130.162 8.2234 129.74 8.16105 129.318 8.18375Z" fill="white"/>
<path d="M185.052 47.9999H160.378C158.997 47.997 157.631 47.7212 156.357 47.1885C155.083 46.6557 153.928 45.8766 152.956 44.8956C151.985 43.9147 151.217 42.7515 150.696 41.4727C150.176 40.194 149.913 38.825 149.923 37.4445V0.0226415H158.085V36.7475C158.092 37.1677 158.183 37.5822 158.353 37.9666C158.523 38.351 158.768 38.6974 159.074 38.9855C159.38 39.2736 159.74 39.4976 160.134 39.6442C160.528 39.7907 160.947 39.8569 161.367 39.8388H176.79V0.0226415H185.052V47.9999Z" fill="white"/>
<path d="M218.686 47.9999H204.556C203.175 47.997 201.809 47.7212 200.535 47.1885C199.261 46.6557 198.105 45.8766 197.134 44.8957C196.162 43.9147 195.394 42.7515 194.874 41.4727C194.353 40.194 194.091 38.825 194.101 37.4445V33.9372H202.262V36.725C202.269 37.1452 202.361 37.5597 202.531 37.9441C202.7 38.3285 202.946 38.675 203.251 38.9631C203.557 39.2512 203.918 39.4751 204.312 39.6217C204.706 39.7682 205.125 39.8344 205.545 39.8163H217.989C218.816 39.7642 219.59 39.3926 220.148 38.7801C220.706 38.1676 221.004 37.3621 220.979 36.5339V29.9579C220.972 29.5377 220.881 29.1232 220.711 28.7388C220.541 28.3544 220.296 28.0079 219.99 27.7198C219.684 27.4317 219.323 27.2078 218.929 27.0612C218.536 26.9147 218.116 26.8485 217.696 26.8666H204.556C203.173 26.8742 201.803 26.6059 200.525 26.0776C199.247 25.5493 198.088 24.7714 197.114 23.7896C196.141 22.8077 195.373 21.6416 194.856 20.3595C194.338 19.0773 194.082 17.7048 194.101 16.3223V10.5444C194.085 9.16271 194.343 7.79156 194.862 6.51075C195.38 5.22995 196.148 4.06508 197.121 3.08386C198.094 2.10263 199.252 1.32468 200.529 0.795281C201.805 0.265882 203.174 -0.00441728 204.556 0.000151805H218.686C220.073 -0.007314 221.449 0.260668 222.732 0.788625C224.016 1.31658 225.181 2.09403 226.162 3.07583C227.143 4.05763 227.919 5.22433 228.446 6.50828C228.972 7.79223 229.239 9.16791 229.23 10.5556V14.0404H220.979V11.2413C220.97 10.8221 220.878 10.4088 220.707 10.0257C220.537 9.64267 220.292 9.29751 219.986 9.01058C219.68 8.72365 219.32 8.50072 218.927 8.35487C218.534 8.20901 218.115 8.14319 217.696 8.16125H205.331C204.911 8.16837 204.496 8.25957 204.112 8.42945C203.728 8.59933 203.381 8.84448 203.093 9.15041C202.805 9.45634 202.581 9.81685 202.435 10.2107C202.288 10.6046 202.222 11.0238 202.24 11.4437V15.6254C202.247 16.0456 202.338 16.4601 202.508 16.8445C202.678 17.2289 202.923 17.5753 203.229 17.8634C203.535 18.1515 203.895 18.3755 204.289 18.522C204.683 18.6686 205.102 18.7348 205.522 18.7167H218.663C220.048 18.7152 221.42 18.9869 222.7 19.5163C223.98 20.0457 225.143 20.8223 226.122 21.8017C227.102 22.7811 227.878 23.9441 228.408 25.2241C228.937 26.504 229.209 27.8758 229.207 29.2609V37.422C229.219 38.8097 228.956 40.1859 228.432 41.471C227.908 42.7561 227.134 43.9245 226.156 44.9083C225.177 45.8922 224.013 46.6721 222.73 47.2028C221.448 47.7335 220.073 48.0045 218.686 47.9999Z" fill="white"/>
<path d="M293.125 14.0629H284.874V11.2638C284.865 10.8446 284.773 10.4313 284.602 10.0482C284.432 9.66511 284.186 9.32001 283.881 9.03309C283.575 8.74616 283.215 8.52323 282.822 8.37737C282.428 8.23152 282.01 8.1657 281.591 8.18375H269.226C268.808 8.19239 268.395 8.28431 268.013 8.45415C267.631 8.62399 267.286 8.86834 266.999 9.17291C266.713 9.47748 266.489 9.83611 266.343 10.2279C266.196 10.6198 266.129 11.0369 266.146 11.4549V36.1855C266.143 37.0862 266.478 37.9552 267.087 38.6196C267.695 39.284 268.531 39.6952 269.428 39.7714H281.58C282 39.7895 282.419 39.7233 282.813 39.5768C283.207 39.4302 283.567 39.2062 283.873 38.9181C284.179 38.63 284.424 38.2835 284.594 37.8992C284.764 37.5148 284.855 37.1003 284.862 36.6801V33.9372H293.125V37.422C293.125 40.2195 292.014 42.9027 290.037 44.8819C288.06 46.8611 285.378 47.9745 282.58 47.9774H268.394C267.001 48.0237 265.613 47.7815 264.317 47.2659C263.022 46.7503 261.847 45.9726 260.866 44.9814C259.886 43.9903 259.121 42.8072 258.619 41.5063C258.117 40.2054 257.89 38.8149 257.951 37.422V10.5556C257.93 9.17315 258.185 7.80035 258.701 6.51761C259.217 5.23487 259.984 4.06791 260.956 3.08502C261.929 2.10213 263.087 1.32305 264.364 0.793359C265.642 0.263665 267.011 -0.00598572 268.394 0.000151805H282.536C283.923 -0.007314 285.299 0.260668 286.582 0.788625C287.865 1.31658 289.031 2.09403 290.012 3.07583C290.993 4.05763 291.769 5.22433 292.296 6.50828C292.822 7.79223 293.089 9.16791 293.08 10.5556L293.125 14.0629Z" fill="white"/>
<path d="M89.2886 26.8216H83.5556V0.0226223H75.3945V26.8216H61.8377V0.0226223H53.6766V34.9939H75.3945V47.9999H83.5556V34.9939H89.2886V26.8216Z" fill="white"/>
</svg>
