<svg width="27" height="28" viewBox="0 0 27 28" fill="none" xmlns="http://www.w3.org/2000/svg">
<path d="M21.3666 12.5333C17.1 9.99996 9.96663 9.73329 5.89996 11C5.23329 11.2 4.56663 10.8 4.36663 10.2C4.16663 9.53329 4.56663 8.86663 5.16663 8.66663C9.89996 7.26663 17.7 7.53329 22.6333 10.4666C23.2333 10.8 23.4333 11.6 23.1 12.2C22.7666 12.6666 21.9666 12.8666 21.3666 12.5333ZM21.2333 16.2666C20.9 16.7333 20.3 16.9333 19.8333 16.6C16.2333 14.4 10.7666 13.7333 6.56663 15.0666C6.03329 15.2 5.43329 14.9333 5.29996 14.4C5.16663 13.8666 5.43329 13.2666 5.96663 13.1333C10.8333 11.6666 16.8333 12.4 20.9666 14.9333C21.3666 15.1333 21.5666 15.8 21.2333 16.2666ZM19.6333 19.9333C19.3666 20.3333 18.9 20.4666 18.5 20.2C15.3666 18.2666 11.4333 17.8666 6.76663 18.9333C6.29996 19.0666 5.89996 18.7333 5.76663 18.3333C5.63329 17.8666 5.96663 17.4666 6.36663 17.3333C11.4333 16.2 15.8333 16.6666 19.3 18.8C19.7666 19 19.8333 19.5333 19.6333 19.9333ZM13.5 0.666626C11.749 0.666626 10.0152 1.0115 8.39751 1.68157C6.77984 2.35163 5.30998 3.33375 4.07187 4.57187C1.57138 7.07235 0.166626 10.4637 0.166626 14C0.166626 17.5362 1.57138 20.9276 4.07187 23.4281C5.30998 24.6662 6.77984 25.6483 8.39751 26.3184C10.0152 26.9884 11.749 27.3333 13.5 27.3333C17.0362 27.3333 20.4276 25.9285 22.9281 23.4281C25.4285 20.9276 26.8333 17.5362 26.8333 14C26.8333 12.249 26.4884 10.5152 25.8184 8.89751C25.1483 7.27984 24.1662 5.80998 22.9281 4.57187C21.6899 3.33375 20.2201 2.35163 18.6024 1.68157C16.9847 1.0115 15.2509 0.666626 13.5 0.666626Z" fill="black"/>
</svg>
