<svg width="27" height="20" viewBox="0 0 27 20" fill="none" xmlns="http://www.w3.org/2000/svg">
<path d="M10.8333 14L17.7533 9.99996L10.8333 5.99996V14ZM26.2466 3.55996C26.42 4.18663 26.54 5.02663 26.62 6.09329C26.7133 7.15996 26.7533 8.07996 26.7533 8.87996L26.8333 9.99996C26.8333 12.92 26.62 15.0666 26.2466 16.44C25.9133 17.64 25.14 18.4133 23.94 18.7466C23.3133 18.92 22.1666 19.04 20.4066 19.12C18.6733 19.2133 17.0866 19.2533 15.62 19.2533L13.5 19.3333C7.91329 19.3333 4.43329 19.12 3.05996 18.7466C1.85996 18.4133 1.08663 17.64 0.753293 16.44C0.579959 15.8133 0.459959 14.9733 0.379959 13.9066C0.286626 12.84 0.246626 11.92 0.246626 11.12L0.166626 9.99996C0.166626 7.07996 0.379959 4.93329 0.753293 3.55996C1.08663 2.35996 1.85996 1.58663 3.05996 1.25329C3.68663 1.07996 4.83329 0.959959 6.59329 0.879959C8.32663 0.786626 9.91329 0.746626 11.38 0.746626L13.5 0.666626C19.0866 0.666626 22.5666 0.879959 23.94 1.25329C25.14 1.58663 25.9133 2.35996 26.2466 3.55996Z" fill="black"/>
</svg>